<svg width="155" height="41" viewBox="0 0 155 41" fill="none" xmlns="http://www.w3.org/2000/svg">
<path d="M0 0.727539V39.9275H8.4V32.0315V0.727539H0Z" fill="white"/>
<path d="M24 1.2168V40.4168H32.4V32.5208L32.5 1.2168H24Z" fill="white"/>
<path d="M54 1.2168V40.4168H62.4V32.5208V1.2168H54Z" fill="white"/>
<path d="M26.8765 7.70808L43.3306 22.0486L48.8497 15.7162L45.5354 12.8276L32.5002 1.21698L26.8765 7.70808Z" fill="white"/>
<path d="M60.0957 7.70801L43.6416 22.0486L38.1226 15.7161L41.4369 12.8275L54 1.2168L60.0957 7.70801Z" fill="white"/>
<path d="M43.7348 21.9701L43.5 22.2175L43.2368 21.9703L43.4998 21.7168L43.7348 21.9701Z" fill="white"/>
<path d="M118 0V39.2H129.836V31.304V0H118Z" fill="white"/>
<path opacity="0.98" d="M118 8L149 8V-1.61216e-07L142.756 -1.61216e-07L118 -1.61216e-07V8Z" fill="white"/>
<path d="M118 23L149 23V15L142.756 15L118 15V23Z" fill="white"/>
<path d="M118 39.1895L149 39.1895V31.1895L142.756 31.1895L118 31.1895V39.1895Z" fill="white"/>
<path d="M74 1.01562V40.2156H84.1958V32.3196V1.01562H74Z" fill="white"/>
<path d="M106.001 12C106.001 5.87879 102.324 1 88.3199 1C74.3156 1 76.56 5.87879 76.56 12C76.56 18.1212 75.4629 25.5 89.4673 25.5C103.472 25.5 106.001 18.1212 106.001 12ZM98.5339 12C98.5339 15.6667 96.4891 19.5 88.3199 19.5C80.1507 19.5 80.836 16.5833 80.836 12.9167C80.836 9.25 80.1507 7.5 88.3199 7.5C96.4891 7.5 98.5339 8.33333 98.5339 12Z" fill="white"/>
</svg>
